<svg xmlns="http://www.w3.org/2000/svg" width="1920" height="1080"><path d="M251,1307L-194,1277L383,1333Z" fill="#bf7263" stroke="#bf7263" stroke-width="1.51"/><path d="M558,1321L383,1333L842,1337Z" fill="#b65442" stroke="#b65442" stroke-width="1.51"/><path d="M611,-259L870,-234L1230,-254Z" fill="#ffb39c" stroke="#ffb39c" stroke-width="1.51"/><path d="M611,-259L1230,-254L1357,-263Z" fill="#ffaa92" stroke="#ffaa92" stroke-width="1.51"/><path d="M1830,1256L1595,1275L2030,1338Z" fill="#930914" stroke="#930914" stroke-width="1.51"/><path d="M1595,1275L1389,1330L2030,1338Z" fill="#990a15" stroke="#990a15" stroke-width="1.51"/><path d="M1946,1256L2030,1338L2030,1099Z" fill="#8b0713" stroke="#8b0713" stroke-width="1.51"/><path d="M1967,824L1951,949L2055,799Z" fill="#b2191b" stroke="#b2191b" stroke-width="1.51"/><path d="M2038,375L2050,555L2085,276Z" fill="#bb4a38" stroke="#bb4a38" stroke-width="1.51"/><path d="M2050,555L1935,703L2086,743Z" fill="#b92d23" stroke="#b92d23" stroke-width="1.51"/><path d="M2085,276L2050,555L2086,743Z" fill="#b83c2d" stroke="#b83c2d" stroke-width="1.51"/><path d="M2055,799L1951,949L2089,1042Z" fill="#a71118" stroke="#a71118" stroke-width="1.51"/><path d="M2086,743L2055,799L2089,1042Z" fill="#a8161a" stroke="#a8161a" stroke-width="1.51"/><path d="M2030,1099L2030,1338L2089,1042Z" fill="#910913" stroke="#910913" stroke-width="1.51"/><path d="M1357,-263L1750,-231L2119,-244Z" fill="#e48c7b" stroke="#e48c7b" stroke-width="1.51"/><path d="M1750,-231L1959,-172L2119,-244Z" fill="#d28475" stroke="#d28475" stroke-width="1.51"/><path d="M1959,-172L2075,-28L2119,-244Z" fill="#c47c6e" stroke="#c47c6e" stroke-width="1.51"/><path d="M2075,-28L1943,103L2126,109Z" fill="#c06c5b" stroke="#c06c5b" stroke-width="1.51"/><path d="M1979,264L2085,276L2126,109Z" fill="#bc5d4a" stroke="#bc5d4a" stroke-width="1.51"/><path d="M1943,103L1979,264L2126,109Z" fill="#c26551" stroke="#c26551" stroke-width="1.51"/><path d="M2119,-244L2075,-28L2126,109Z" fill="#bc7466" stroke="#bc7466" stroke-width="1.51"/><path d="M2085,276L2086,743L2126,109Z" fill="#b64b3a" stroke="#b64b3a" stroke-width="1.51"/><path d="M2086,743L2089,1042L2126,109Z" fill="#b22f25" stroke="#b22f25" stroke-width="1.51"/><path d="M1912,1166L1946,1256L2030,1099Z" fill="#970b14" stroke="#970b14" stroke-width="1.51"/><path d="M2038,375L1951,544L2050,555Z" fill="#bf4231" stroke="#bf4231" stroke-width="1.51"/><path d="M1959,-172L1933,-63L2075,-28Z" fill="#cb7c6b" stroke="#cb7c6b" stroke-width="1.51"/><path d="M1979,264L2038,375L2085,276Z" fill="#be5541" stroke="#be5541" stroke-width="1.51"/><path d="M1951,949L2030,1099L2089,1042Z" fill="#a00d15" stroke="#a00d15" stroke-width="1.51"/><path d="M1935,703L2055,799L2086,743Z" fill="#b7221e" stroke="#b7221e" stroke-width="1.51"/><path d="M-190,-208L255,-196L611,-259Z" fill="#ffddcf" stroke="#ffddcf" stroke-width="1.51"/><path d="M1951,544L1935,703L2050,555Z" fill="#c13728" stroke="#c13728" stroke-width="1.51"/><path d="M1933,-63L1943,103L2075,-28Z" fill="#c97462" stroke="#c97462" stroke-width="1.51"/><path d="M1918,343L1951,544L2038,375Z" fill="#c54b38" stroke="#c54b38" stroke-width="1.51"/><path d="M1935,703L1967,824L2055,799Z" fill="#b9211e" stroke="#b9211e" stroke-width="1.51"/><path d="M1979,264L1918,343L2038,375Z" fill="#c45440" stroke="#c45440" stroke-width="1.51"/><path d="M1946,1256L1830,1256L2030,1338Z" fill="#8a0712" stroke="#8a0712" stroke-width="1.51"/><path d="M1951,949L1833,1011L2030,1099Z" fill="#a91016" stroke="#a91016" stroke-width="1.51"/><path d="M1833,1011L1912,1166L2030,1099Z" fill="#a40f16" stroke="#a40f16" stroke-width="1.51"/><path d="M1918,343L1799,502L1951,544Z" fill="#cd4a35" stroke="#cd4a35" stroke-width="1.51"/><path d="M1943,103L1754,213L1979,264Z" fill="#d06650" stroke="#d06650" stroke-width="1.51"/><path d="M1754,213L1918,343L1979,264Z" fill="#d05e47" stroke="#d05e47" stroke-width="1.51"/><path d="M1933,-63L1758,64L1943,103Z" fill="#d57661" stroke="#d57661" stroke-width="1.51"/><path d="M1771,692L1935,703L1951,544Z" fill="#c93426" stroke="#c93426" stroke-width="1.51"/><path d="M1799,502L1771,692L1951,544Z" fill="#d03d2c" stroke="#d03d2c" stroke-width="1.51"/><path d="M1784,794L1951,949L1967,824Z" fill="#bc1c1c" stroke="#bc1c1c" stroke-width="1.51"/><path d="M1935,703L1784,794L1967,824Z" fill="#c3231f" stroke="#c3231f" stroke-width="1.51"/><path d="M1784,794L1833,1011L1951,949Z" fill="#bb171a" stroke="#bb171a" stroke-width="1.51"/><path d="M1778,-110L1933,-63L1959,-172Z" fill="#d7826f" stroke="#d7826f" stroke-width="1.51"/><path d="M1750,-231L1778,-110L1959,-172Z" fill="#dd8674" stroke="#dd8674" stroke-width="1.51"/><path d="M1912,1166L1830,1256L1946,1256Z" fill="#960b14" stroke="#960b14" stroke-width="1.51"/><path d="M1758,64L1754,213L1943,103Z" fill="#d76f58" stroke="#d76f58" stroke-width="1.51"/><path d="M1778,-110L1758,64L1933,-63Z" fill="#db7e6a" stroke="#db7e6a" stroke-width="1.51"/><path d="M1735,425L1799,502L1918,343Z" fill="#d3503a" stroke="#d3503a" stroke-width="1.51"/><path d="M1771,692L1784,794L1935,703Z" fill="#cc2a22" stroke="#cc2a22" stroke-width="1.51"/><path d="M1833,1011L1756,1152L1912,1166Z" fill="#ab1016" stroke="#ab1016" stroke-width="1.51"/><path d="M1754,213L1735,425L1918,343Z" fill="#d55a44" stroke="#d55a44" stroke-width="1.51"/><path d="M1756,1152L1830,1256L1912,1166Z" fill="#a10e15" stroke="#a10e15" stroke-width="1.51"/><path d="M1357,-263L1518,-169L1750,-231Z" fill="#f1907d" stroke="#f1907d" stroke-width="1.51"/><path d="M1674,390L1735,425L1754,213Z" fill="#da5a43" stroke="#da5a43" stroke-width="1.51"/><path d="M1649,659L1771,692L1799,502Z" fill="#d53b2b" stroke="#d53b2b" stroke-width="1.51"/><path d="M1598,1086L1756,1152L1833,1011Z" fill="#b41318" stroke="#b41318" stroke-width="1.51"/><path d="M1606,943L1598,1086L1833,1011Z" fill="#be141a" stroke="#be141a" stroke-width="1.51"/><path d="M1784,794L1679,806L1833,1011Z" fill="#c51e1d" stroke="#c51e1d" stroke-width="1.51"/><path d="M1679,806L1606,943L1833,1011Z" fill="#c41a1c" stroke="#c41a1c" stroke-width="1.51"/><path d="M1756,1152L1595,1275L1830,1256Z" fill="#a30e16" stroke="#a30e16" stroke-width="1.51"/><path d="M1618,267L1674,390L1754,213Z" fill="#de6149" stroke="#de6149" stroke-width="1.51"/><path d="M1634,139L1754,213L1758,64Z" fill="#de7058" stroke="#de7058" stroke-width="1.51"/><path d="M1750,-231L1671,-165L1778,-110Z" fill="#e48976" stroke="#e48976" stroke-width="1.51"/><path d="M1634,-103L1758,64L1778,-110Z" fill="#e2826d" stroke="#e2826d" stroke-width="1.51"/><path d="M1735,425L1584,551L1799,502Z" fill="#da4a35" stroke="#da4a35" stroke-width="1.51"/><path d="M1584,551L1649,659L1799,502Z" fill="#da412f" stroke="#da412f" stroke-width="1.51"/><path d="M1179,1277L842,1337L1389,1330Z" fill="#b32c23" stroke="#b32c23" stroke-width="1.51"/><path d="M1771,692L1679,806L1784,794Z" fill="#cf2621" stroke="#cf2621" stroke-width="1.51"/><path d="M1518,-169L1671,-165L1750,-231Z" fill="#ea8c79" stroke="#ea8c79" stroke-width="1.51"/><path d="M1649,659L1679,806L1771,692Z" fill="#d52d24" stroke="#d52d24" stroke-width="1.51"/><path d="M1671,-165L1634,-103L1778,-110Z" fill="#e68874" stroke="#e68874" stroke-width="1.51"/><path d="M1598,1086L1595,1275L1756,1152Z" fill="#b01118" stroke="#b01118" stroke-width="1.51"/><path d="M1634,-103L1634,139L1758,64Z" fill="#e37b65" stroke="#e37b65" stroke-width="1.51"/><path d="M1674,390L1584,551L1735,425Z" fill="#de4f39" stroke="#de4f39" stroke-width="1.51"/><path d="M1634,139L1618,267L1754,213Z" fill="#e06b52" stroke="#e06b52" stroke-width="1.51"/><path d="M1537,1144L1595,1275L1598,1086Z" fill="#b51219" stroke="#b51219" stroke-width="1.51"/><path d="M1435,-90L1437,95L1634,-103Z" fill="#f08770" stroke="#f08770" stroke-width="1.51"/><path d="M1634,-103L1437,95L1634,139Z" fill="#ea7d66" stroke="#ea7d66" stroke-width="1.51"/><path d="M1445,402L1584,551L1674,390Z" fill="#e4523c" stroke="#e4523c" stroke-width="1.51"/><path d="M1516,867L1606,943L1679,806Z" fill="#cf1f1f" stroke="#cf1f1f" stroke-width="1.51"/><path d="M1649,659L1529,689L1679,806Z" fill="#da2f25" stroke="#da2f25" stroke-width="1.51"/><path d="M1529,689L1516,867L1679,806Z" fill="#d82823" stroke="#d82823" stroke-width="1.51"/><path d="M1618,267L1445,402L1674,390Z" fill="#e45c44" stroke="#e45c44" stroke-width="1.51"/><path d="M1518,-169L1634,-103L1671,-165Z" fill="#ec8b77" stroke="#ec8b77" stroke-width="1.51"/><path d="M1015,1279L842,1337L1179,1277Z" fill="#b83729" stroke="#b83729" stroke-width="1.51"/><path d="M1445,402L1489,539L1584,551Z" fill="#e74f38" stroke="#e74f38" stroke-width="1.51"/><path d="M1498,185L1618,267L1634,139Z" fill="#e66d54" stroke="#e66d54" stroke-width="1.51"/><path d="M1584,551L1529,689L1649,659Z" fill="#de3b2c" stroke="#de3b2c" stroke-width="1.51"/><path d="M1467,1253L1389,1330L1595,1275Z" fill="#a81319" stroke="#a81319" stroke-width="1.51"/><path d="M1494,999L1598,1086L1606,943Z" fill="#c5171c" stroke="#c5171c" stroke-width="1.51"/><path d="M1518,-169L1435,-90L1634,-103Z" fill="#f08c77" stroke="#f08c77" stroke-width="1.51"/><path d="M1437,95L1498,185L1634,139Z" fill="#ea755c" stroke="#ea755c" stroke-width="1.51"/><path d="M1498,185L1445,402L1618,267Z" fill="#e9664d" stroke="#e9664d" stroke-width="1.51"/><path d="M1489,539L1529,689L1584,551Z" fill="#e34230" stroke="#e34230" stroke-width="1.51"/><path d="M1537,1144L1467,1253L1595,1275Z" fill="#af1318" stroke="#af1318" stroke-width="1.51"/><path d="M1516,867L1494,999L1606,943Z" fill="#ce1b1e" stroke="#ce1b1e" stroke-width="1.51"/><path d="M1494,999L1537,1144L1598,1086Z" fill="#c0171b" stroke="#c0171b" stroke-width="1.51"/><path d="M1282,272L1445,402L1498,185Z" fill="#ef6a4f" stroke="#ef6a4f" stroke-width="1.51"/><path d="M1344,720L1358,892L1516,867Z" fill="#df2e25" stroke="#df2e25" stroke-width="1.51"/><path d="M1489,539L1321,587L1529,689Z" fill="#e84531" stroke="#e84531" stroke-width="1.51"/><path d="M1321,587L1344,720L1529,689Z" fill="#e93f2e" stroke="#e93f2e" stroke-width="1.51"/><path d="M1344,720L1516,867L1529,689Z" fill="#e22f26" stroke="#e22f26" stroke-width="1.51"/><path d="M1494,999L1290,1093L1537,1144Z" fill="#c61e1d" stroke="#c61e1d" stroke-width="1.51"/><path d="M1290,1093L1467,1253L1537,1144Z" fill="#bf1d1c" stroke="#bf1d1c" stroke-width="1.51"/><path d="M1358,892L1494,999L1516,867Z" fill="#d42320" stroke="#d42320" stroke-width="1.51"/><path d="M1357,-263L1435,-90L1518,-169Z" fill="#f7937d" stroke="#f7937d" stroke-width="1.51"/><path d="M1435,-90L1371,-87L1437,95Z" fill="#f58a72" stroke="#f58a72" stroke-width="1.51"/><path d="M1437,95L1282,272L1498,185Z" fill="#f1765b" stroke="#f1765b" stroke-width="1.51"/><path d="M1445,402L1321,587L1489,539Z" fill="#ec513a" stroke="#ec513a" stroke-width="1.51"/><path d="M1358,892L1284,972L1494,999Z" fill="#d62421" stroke="#d62421" stroke-width="1.51"/><path d="M1284,972L1290,1093L1494,999Z" fill="#d02420" stroke="#d02420" stroke-width="1.51"/><path d="M1357,-263L1371,-87L1435,-90Z" fill="#fa937d" stroke="#fa937d" stroke-width="1.51"/><path d="M1371,-87L1280,85L1437,95Z" fill="#f7866d" stroke="#f7866d" stroke-width="1.51"/><path d="M1280,85L1282,272L1437,95Z" fill="#f57c60" stroke="#f57c60" stroke-width="1.51"/><path d="M1280,400L1321,587L1445,402Z" fill="#f15a40" stroke="#f15a40" stroke-width="1.51"/><path d="M1282,272L1280,400L1445,402Z" fill="#f2664a" stroke="#f2664a" stroke-width="1.51"/><path d="M1290,1093L1389,1330L1467,1253Z" fill="#b71d1c" stroke="#b71d1c" stroke-width="1.51"/><path d="M-190,-208L-15,-186L255,-196Z" fill="#ffe7dc" stroke="#ffe7dc" stroke-width="1.51"/><path d="M1290,1093L1179,1277L1389,1330Z" fill="#bc221f" stroke="#bc221f" stroke-width="1.51"/><path d="M1344,720L1203,793L1358,892Z" fill="#e73529" stroke="#e73529" stroke-width="1.51"/><path d="M1234,51L1280,85L1371,-87Z" fill="#fb8b70" stroke="#fb8b70" stroke-width="1.51"/><path d="M1357,-263L1230,-254L1371,-87Z" fill="#fe9983" stroke="#fe9983" stroke-width="1.51"/><path d="M1280,400L1208,547L1321,587Z" fill="#f5573e" stroke="#f5573e" stroke-width="1.51"/><path d="M1132,-50L1234,51L1371,-87Z" fill="#ff9177" stroke="#ff9177" stroke-width="1.51"/><path d="M1230,-254L1132,-50L1371,-87Z" fill="#ff9980" stroke="#ff9980" stroke-width="1.51"/><path d="M870,-234L1078,-194L1230,-254Z" fill="#ffa991" stroke="#ffa991" stroke-width="1.51"/><path d="M1203,793L1284,972L1358,892Z" fill="#e12f26" stroke="#e12f26" stroke-width="1.51"/><path d="M1183,1098L1179,1277L1290,1093Z" fill="#ca2b22" stroke="#ca2b22" stroke-width="1.51"/><path d="M1208,547L1137,722L1321,587Z" fill="#f44f37" stroke="#f44f37" stroke-width="1.51"/><path d="M1321,587L1137,722L1344,720Z" fill="#f14431" stroke="#f14431" stroke-width="1.51"/><path d="M1137,722L1203,793L1344,720Z" fill="#f03e2d" stroke="#f03e2d" stroke-width="1.51"/><path d="M1280,85L1158,286L1282,272Z" fill="#fa7a5d" stroke="#fa7a5d" stroke-width="1.51"/><path d="M1078,-194L1132,-50L1230,-254Z" fill="#ffa188" stroke="#ffa188" stroke-width="1.51"/><path d="M1073,111L1158,286L1234,51Z" fill="#fb8668" stroke="#fb8668" stroke-width="1.51"/><path d="M1182,358L1208,547L1280,400Z" fill="#f76347" stroke="#f76347" stroke-width="1.51"/><path d="M1234,51L1158,286L1280,85Z" fill="#fb8366" stroke="#fb8366" stroke-width="1.51"/><path d="M1182,358L1280,400L1282,272Z" fill="#f86b4e" stroke="#f86b4e" stroke-width="1.51"/><path d="M1158,286L1182,358L1282,272Z" fill="#f87254" stroke="#f87254" stroke-width="1.51"/><path d="M1203,793L1142,964L1284,972Z" fill="#e13428" stroke="#e13428" stroke-width="1.51"/><path d="M1142,964L1183,1098L1284,972Z" fill="#d83026" stroke="#d83026" stroke-width="1.51"/><path d="M1284,972L1183,1098L1290,1093Z" fill="#d32a23" stroke="#d32a23" stroke-width="1.51"/><path d="M1077,1184L1179,1277L1183,1098Z" fill="#c73125" stroke="#c73125" stroke-width="1.51"/><path d="M1070,882L1142,964L1203,793Z" fill="#e63d2d" stroke="#e63d2d" stroke-width="1.51"/><path d="M1061,686L1137,722L1208,547Z" fill="#f55239" stroke="#f55239" stroke-width="1.51"/><path d="M1086,532L1061,686L1208,547Z" fill="#f75a3e" stroke="#f75a3e" stroke-width="1.51"/><path d="M1182,358L1086,532L1208,547Z" fill="#f86346" stroke="#f86346" stroke-width="1.51"/><path d="M1132,-50L1073,111L1234,51Z" fill="#fe9175" stroke="#fe9175" stroke-width="1.51"/><path d="M1073,111L1075,278L1158,286Z" fill="#fc8263" stroke="#fc8263" stroke-width="1.51"/><path d="M1027,405L1086,532L1182,358Z" fill="#f96c4d" stroke="#f96c4d" stroke-width="1.51"/><path d="M1137,722L1070,882L1203,793Z" fill="#ed4230" stroke="#ed4230" stroke-width="1.51"/><path d="M1078,-194L1034,-98L1132,-50Z" fill="#ffa288" stroke="#ffa288" stroke-width="1.51"/><path d="M1021,935L1077,1184L1142,964Z" fill="#d93b2c" stroke="#d93b2c" stroke-width="1.51"/><path d="M1158,286L1075,278L1182,358Z" fill="#f97658" stroke="#f97658" stroke-width="1.51"/><path d="M1142,964L1077,1184L1183,1098Z" fill="#d33528" stroke="#d33528" stroke-width="1.51"/><path d="M1075,278L1027,405L1182,358Z" fill="#fa7555" stroke="#fa7555" stroke-width="1.51"/><path d="M1077,1184L1015,1279L1179,1277Z" fill="#bf3327" stroke="#bf3327" stroke-width="1.51"/><path d="M1061,686L1070,882L1137,722Z" fill="#f14934" stroke="#f14934" stroke-width="1.51"/><path d="M1021,935L894,1024L1077,1184Z" fill="#d9422f" stroke="#d9422f" stroke-width="1.51"/><path d="M1034,-98L1073,111L1132,-50Z" fill="#ff9a7e" stroke="#ff9a7e" stroke-width="1.51"/><path d="M1070,882L1021,935L1142,964Z" fill="#e33f2e" stroke="#e33f2e" stroke-width="1.51"/><path d="M1034,-98L928,50L1073,111Z" fill="#ff9b7e" stroke="#ff9b7e" stroke-width="1.51"/><path d="M922,657L914,863L1061,686Z" fill="#f6553b" stroke="#f6553b" stroke-width="1.51"/><path d="M935,568L922,657L1061,686Z" fill="#f95f42" stroke="#f95f42" stroke-width="1.51"/><path d="M1061,686L914,863L1070,882Z" fill="#ef4c35" stroke="#ef4c35" stroke-width="1.51"/><path d="M928,50L851,217L1073,111Z" fill="#fe9575" stroke="#fe9575" stroke-width="1.51"/><path d="M1073,111L851,217L1075,278Z" fill="#fd8a6a" stroke="#fd8a6a" stroke-width="1.51"/><path d="M894,1024L866,1086L1077,1184Z" fill="#d54431" stroke="#d54431" stroke-width="1.51"/><path d="M935,568L1061,686L1086,532Z" fill="#f96042" stroke="#f96042" stroke-width="1.51"/><path d="M1027,405L935,568L1086,532Z" fill="#fb6a4a" stroke="#fb6a4a" stroke-width="1.51"/><path d="M870,-234L1034,-98L1078,-194Z" fill="#ffaa91" stroke="#ffaa91" stroke-width="1.51"/><path d="M851,217L1027,405L1075,278Z" fill="#fc8161" stroke="#fc8161" stroke-width="1.51"/><path d="M866,1086L1015,1279L1077,1184Z" fill="#cb3e2d" stroke="#cb3e2d" stroke-width="1.51"/><path d="M851,217L896,426L1027,405Z" fill="#fc7f5f" stroke="#fc7f5f" stroke-width="1.51"/><path d="M914,863L1021,935L1070,882Z" fill="#e74833" stroke="#e74833" stroke-width="1.51"/><path d="M896,426L935,568L1027,405Z" fill="#fc7251" stroke="#fc7251" stroke-width="1.51"/><path d="M831,-68L928,50L1034,-98Z" fill="#ffa589" stroke="#ffa589" stroke-width="1.51"/><path d="M870,-234L831,-68L1034,-98Z" fill="#ffad93" stroke="#ffad93" stroke-width="1.51"/><path d="M866,1086L842,1337L1015,1279Z" fill="#c44231" stroke="#c44231" stroke-width="1.51"/><path d="M914,863L894,1024L1021,935Z" fill="#e44934" stroke="#e44934" stroke-width="1.51"/><path d="M-21,1266L-194,1277L251,1307Z" fill="#c57a6c" stroke="#c57a6c" stroke-width="1.51"/><path d="M713,1239L842,1337L866,1086Z" fill="#c74a37" stroke="#c74a37" stroke-width="1.51"/><path d="M611,-259L788,-195L870,-234Z" fill="#ffbba5" stroke="#ffbba5" stroke-width="1.51"/><path d="M788,-195L831,-68L870,-234Z" fill="#ffb49b" stroke="#ffb49b" stroke-width="1.51"/><path d="M851,217L760,401L896,426Z" fill="#fc8564" stroke="#fc8564" stroke-width="1.51"/><path d="M777,980L894,1024L914,863Z" fill="#e44f39" stroke="#e44f39" stroke-width="1.51"/><path d="M767,784L914,863L922,657Z" fill="#f45b40" stroke="#f45b40" stroke-width="1.51"/><path d="M778,188L851,217L928,50Z" fill="#fe9879" stroke="#fe9879" stroke-width="1.51"/><path d="M757,520L922,657L935,568Z" fill="#fb6c4d" stroke="#fb6c4d" stroke-width="1.51"/><path d="M896,426L757,520L935,568Z" fill="#fc7554" stroke="#fc7554" stroke-width="1.51"/><path d="M734,744L767,784L922,657Z" fill="#f76246" stroke="#f76246" stroke-width="1.51"/><path d="M831,-68L703,110L928,50Z" fill="#ffa589" stroke="#ffa589" stroke-width="1.51"/><path d="M703,110L778,188L928,50Z" fill="#fe9f81" stroke="#fe9f81" stroke-width="1.51"/><path d="M729,1107L713,1239L866,1086Z" fill="#d2513b" stroke="#d2513b" stroke-width="1.51"/><path d="M757,520L734,744L922,657Z" fill="#f96b4d" stroke="#f96b4d" stroke-width="1.51"/><path d="M767,784L777,980L914,863Z" fill="#eb573f" stroke="#eb573f" stroke-width="1.51"/><path d="M760,401L757,520L896,426Z" fill="#fc7e5d" stroke="#fc7e5d" stroke-width="1.51"/><path d="M777,980L866,1086L894,1024Z" fill="#dd4f39" stroke="#dd4f39" stroke-width="1.51"/><path d="M778,188L760,401L851,217Z" fill="#fd9070" stroke="#fd9070" stroke-width="1.51"/><path d="M777,980L729,1107L866,1086Z" fill="#da523b" stroke="#da523b" stroke-width="1.51"/><path d="M255,-196L479,-203L611,-259Z" fill="#ffcebc" stroke="#ffcebc" stroke-width="1.51"/><path d="M639,-33L703,110L831,-68Z" fill="#ffae93" stroke="#ffae93" stroke-width="1.51"/><path d="M788,-195L700,-116L831,-68Z" fill="#ffb59d" stroke="#ffb59d" stroke-width="1.51"/><path d="M713,1239L558,1321L842,1337Z" fill="#ba4d3b" stroke="#ba4d3b" stroke-width="1.51"/><path d="M625,282L760,401L778,188Z" fill="#fd9373" stroke="#fd9373" stroke-width="1.51"/><path d="M700,-116L639,-33L831,-68Z" fill="#ffb59b" stroke="#ffb59b" stroke-width="1.51"/><path d="M617,741L734,744L757,520Z" fill="#f97051" stroke="#f97051" stroke-width="1.51"/><path d="M617,741L540,878L767,784Z" fill="#f2694e" stroke="#f2694e" stroke-width="1.51"/><path d="M767,784L540,878L777,980Z" fill="#eb6147" stroke="#eb6147" stroke-width="1.51"/><path d="M540,878L591,1025L777,980Z" fill="#e46048" stroke="#e46048" stroke-width="1.51"/><path d="M611,-259L700,-116L788,-195Z" fill="#ffbca6" stroke="#ffbca6" stroke-width="1.51"/><path d="M547,514L617,741L757,520Z" fill="#fb7c5b" stroke="#fb7c5b" stroke-width="1.51"/><path d="M591,1025L729,1107L777,980Z" fill="#dd5942" stroke="#dd5942" stroke-width="1.51"/><path d="M703,110L625,282L778,188Z" fill="#fd9e7f" stroke="#fd9e7f" stroke-width="1.51"/><path d="M550,443L757,520L760,401Z" fill="#fc8564" stroke="#fc8564" stroke-width="1.51"/><path d="M734,744L617,741L767,784Z" fill="#f6674b" stroke="#f6674b" stroke-width="1.51"/><path d="M639,-33L617,72L703,110Z" fill="#feae93" stroke="#feae93" stroke-width="1.51"/><path d="M550,443L547,514L757,520Z" fill="#fc8665" stroke="#fc8665" stroke-width="1.51"/><path d="M625,282L550,443L760,401Z" fill="#fc8f6f" stroke="#fc8f6f" stroke-width="1.51"/><path d="M582,1103L713,1239L729,1107Z" fill="#d35741" stroke="#d35741" stroke-width="1.51"/><path d="M591,1025L582,1103L729,1107Z" fill="#da5d45" stroke="#da5d45" stroke-width="1.51"/><path d="M617,72L625,282L703,110Z" fill="#fda587" stroke="#fda587" stroke-width="1.51"/><path d="M582,1103L558,1321L713,1239Z" fill="#c85843" stroke="#c85843" stroke-width="1.51"/><path d="M479,-203L639,-33L700,-116Z" fill="#ffbfa8" stroke="#ffbfa8" stroke-width="1.51"/><path d="M611,-259L479,-203L700,-116Z" fill="#ffc4ae" stroke="#ffc4ae" stroke-width="1.51"/><path d="M547,514L466,562L617,741Z" fill="#fc8162" stroke="#fc8162" stroke-width="1.51"/><path d="M617,72L473,216L625,282Z" fill="#fda789" stroke="#fda789" stroke-width="1.51"/><path d="M479,-203L479,-26L639,-33Z" fill="#ffc3ac" stroke="#ffc3ac" stroke-width="1.51"/><path d="M479,-26L617,72L639,-33Z" fill="#ffb79e" stroke="#ffb79e" stroke-width="1.51"/><path d="M398,1115L558,1321L582,1103Z" fill="#d0624b" stroke="#d0624b" stroke-width="1.51"/><path d="M466,562L415,743L617,741Z" fill="#fa7d5f" stroke="#fa7d5f" stroke-width="1.51"/><path d="M443,417L550,443L625,282Z" fill="#fd9677" stroke="#fd9677" stroke-width="1.51"/><path d="M473,216L443,417L625,282Z" fill="#fd9f80" stroke="#fd9f80" stroke-width="1.51"/><path d="M479,-26L394,69L617,72Z" fill="#febaa0" stroke="#febaa0" stroke-width="1.51"/><path d="M394,69L473,216L617,72Z" fill="#fdb397" stroke="#fdb397" stroke-width="1.51"/><path d="M415,743L540,878L617,741Z" fill="#f57357" stroke="#f57357" stroke-width="1.51"/><path d="M415,743L410,819L540,878Z" fill="#f4775b" stroke="#f4775b" stroke-width="1.51"/><path d="M398,1115L383,1333L558,1321Z" fill="#c4624e" stroke="#c4624e" stroke-width="1.51"/><path d="M449,1030L582,1103L591,1025Z" fill="#dd654c" stroke="#dd654c" stroke-width="1.51"/><path d="M540,878L449,1030L591,1025Z" fill="#e46850" stroke="#e46850" stroke-width="1.51"/><path d="M449,1030L398,1115L582,1103Z" fill="#db6851" stroke="#db6851" stroke-width="1.51"/><path d="M443,417L466,562L547,514Z" fill="#fe8f6f" stroke="#fe8f6f" stroke-width="1.51"/><path d="M443,417L547,514L550,443Z" fill="#fd9171" stroke="#fd9171" stroke-width="1.51"/><path d="M328,1172L383,1333L398,1115Z" fill="#cc6b55" stroke="#cc6b55" stroke-width="1.51"/><path d="M410,819L449,1030L540,878Z" fill="#ec7056" stroke="#ec7056" stroke-width="1.51"/><path d="M410,819L330,889L449,1030Z" fill="#eb755b" stroke="#eb755b" stroke-width="1.51"/><path d="M323,670L415,743L466,562Z" fill="#fb8668" stroke="#fb8668" stroke-width="1.51"/><path d="M443,417L282,485L466,562Z" fill="#fe9777" stroke="#fe9777" stroke-width="1.51"/><path d="M394,69L321,131L473,216Z" fill="#fcb89c" stroke="#fcb89c" stroke-width="1.51"/><path d="M323,370L443,417L473,216Z" fill="#fda385" stroke="#fda385" stroke-width="1.51"/><path d="M301,192L323,370L473,216Z" fill="#fdae91" stroke="#fdae91" stroke-width="1.51"/><path d="M256,-111L394,69L479,-26Z" fill="#fdc7b1" stroke="#fdc7b1" stroke-width="1.51"/><path d="M256,-111L479,-26L479,-203Z" fill="#feccb8" stroke="#feccb8" stroke-width="1.51"/><path d="M255,-196L256,-111L479,-203Z" fill="#fed4c2" stroke="#fed4c2" stroke-width="1.51"/><path d="M321,131L301,192L473,216Z" fill="#fdb69a" stroke="#fdb69a" stroke-width="1.51"/><path d="M282,485L323,670L466,562Z" fill="#fd9172" stroke="#fd9172" stroke-width="1.51"/><path d="M253,955L398,1115L449,1030Z" fill="#e1725a" stroke="#e1725a" stroke-width="1.51"/><path d="M330,889L253,955L449,1030Z" fill="#e8765e" stroke="#e8765e" stroke-width="1.51"/><path d="M323,370L282,485L443,417Z" fill="#fe9f81" stroke="#fe9f81" stroke-width="1.51"/><path d="M328,1172L251,1307L383,1333Z" fill="#c36a57" stroke="#c36a57" stroke-width="1.51"/><path d="M323,670L330,889L410,819Z" fill="#f67f64" stroke="#f67f64" stroke-width="1.51"/><path d="M323,670L410,819L415,743Z" fill="#fa8063" stroke="#fa8063" stroke-width="1.51"/><path d="M253,955L328,1172L398,1115Z" fill="#dc735b" stroke="#dc735b" stroke-width="1.51"/><path d="M323,670L164,811L330,889Z" fill="#f8856a" stroke="#f8856a" stroke-width="1.51"/><path d="M256,-111L321,131L394,69Z" fill="#fec6af" stroke="#fec6af" stroke-width="1.51"/><path d="M253,955L187,993L328,1172Z" fill="#e27962" stroke="#e27962" stroke-width="1.51"/><path d="M-15,-186L172,-158L255,-196Z" fill="#ffe0d3" stroke="#ffe0d3" stroke-width="1.51"/><path d="M256,-111L154,127L321,131Z" fill="#fdc9b4" stroke="#fdc9b4" stroke-width="1.51"/><path d="M132,645L164,811L323,670Z" fill="#fe8f73" stroke="#fe8f73" stroke-width="1.51"/><path d="M282,485L188,561L323,670Z" fill="#ff9879" stroke="#ff9879" stroke-width="1.51"/><path d="M301,192L127,232L323,370Z" fill="#feb59a" stroke="#feb59a" stroke-width="1.51"/><path d="M127,232L102,380L323,370Z" fill="#ffb298" stroke="#ffb298" stroke-width="1.51"/><path d="M152,1244L251,1307L328,1172Z" fill="#c9705e" stroke="#c9705e" stroke-width="1.51"/><path d="M141,1165L152,1244L328,1172Z" fill="#d17662" stroke="#d17662" stroke-width="1.51"/><path d="M187,993L141,1165L328,1172Z" fill="#dc7963" stroke="#dc7963" stroke-width="1.51"/><path d="M164,811L253,955L330,889Z" fill="#f08168" stroke="#f08168" stroke-width="1.51"/><path d="M188,561L132,645L323,670Z" fill="#ff9679" stroke="#ff9679" stroke-width="1.51"/><path d="M102,380L282,485L323,370Z" fill="#ffa78b" stroke="#ffa78b" stroke-width="1.51"/><path d="M130,-112L154,127L256,-111Z" fill="#fed4c2" stroke="#fed4c2" stroke-width="1.51"/><path d="M154,127L301,192L321,131Z" fill="#fdbfa6" stroke="#fdbfa6" stroke-width="1.51"/><path d="M152,1244L-21,1266L251,1307Z" fill="#c57665" stroke="#c57665" stroke-width="1.51"/><path d="M154,127L127,232L301,192Z" fill="#fec0a8" stroke="#fec0a8" stroke-width="1.51"/><path d="M102,380L188,561L282,485Z" fill="#ffa588" stroke="#ffa588" stroke-width="1.51"/><path d="M164,811L187,993L253,955Z" fill="#ef826a" stroke="#ef826a" stroke-width="1.51"/><path d="M172,-158L130,-112L256,-111Z" fill="#fedacb" stroke="#fedacb" stroke-width="1.51"/><path d="M255,-196L172,-158L256,-111Z" fill="#ffd9c9" stroke="#ffd9c9" stroke-width="1.51"/><path d="M130,-112L-48,42L154,127Z" fill="#fed6c5" stroke="#fed6c5" stroke-width="1.51"/><path d="M132,645L15,790L164,811Z" fill="#ff9379" stroke="#ff9379" stroke-width="1.51"/><path d="M-1,1038L141,1165L187,993Z" fill="#e2816d" stroke="#e2816d" stroke-width="1.51"/><path d="M164,811L15,790L187,993Z" fill="#f48a72" stroke="#f48a72" stroke-width="1.51"/><path d="M15,790L-1,1038L187,993Z" fill="#ef8973" stroke="#ef8973" stroke-width="1.51"/><path d="M-69,583L132,645L188,561Z" fill="#ffa186" stroke="#ffa186" stroke-width="1.51"/><path d="M102,380L-69,583L188,561Z" fill="#ffa98e" stroke="#ffa98e" stroke-width="1.51"/><path d="M-18,-107L-48,42L130,-112Z" fill="#fedfd1" stroke="#fedfd1" stroke-width="1.51"/><path d="M-15,-186L130,-112L172,-158Z" fill="#ffe1d4" stroke="#ffe1d4" stroke-width="1.51"/><path d="M-6,354L102,380L127,232Z" fill="#ffb9a2" stroke="#ffb9a2" stroke-width="1.51"/><path d="M141,1165L-21,1266L152,1244Z" fill="#ce7b6a" stroke="#ce7b6a" stroke-width="1.51"/><path d="M-61,246L127,232L154,127Z" fill="#ffc5b0" stroke="#ffc5b0" stroke-width="1.51"/><path d="M-48,42L-61,246L154,127Z" fill="#feceba" stroke="#feceba" stroke-width="1.51"/><path d="M-6,354L-69,583L102,380Z" fill="#ffb298" stroke="#ffb298" stroke-width="1.51"/><path d="M-50,695L15,790L132,645Z" fill="#ff9980" stroke="#ff9980" stroke-width="1.51"/><path d="M-1,1038L-50,1120L141,1165Z" fill="#df8470" stroke="#df8470" stroke-width="1.51"/><path d="M-50,1120L-21,1266L141,1165Z" fill="#d5816f" stroke="#d5816f" stroke-width="1.51"/><path d="M-61,246L-6,354L127,232Z" fill="#ffc0aa" stroke="#ffc0aa" stroke-width="1.51"/><path d="M-15,-186L-18,-107L130,-112Z" fill="#fee4d7" stroke="#fee4d7" stroke-width="1.51"/><path d="M-69,583L-50,695L132,645Z" fill="#ffa087" stroke="#ffa087" stroke-width="1.51"/><path d="M-188,133L-61,246L-48,42Z" fill="#ffd1c0" stroke="#ffd1c0" stroke-width="1.51"/><path d="M-151,-52L-48,42L-18,-107Z" fill="#ffe1d3" stroke="#ffe1d3" stroke-width="1.51"/><path d="M-115,354L-69,583L-6,354Z" fill="#ffb59d" stroke="#ffb59d" stroke-width="1.51"/><path d="M-50,695L-203,871L15,790Z" fill="#fe9881" stroke="#fe9881" stroke-width="1.51"/><path d="M-165,997L-1,1038L15,790Z" fill="#f08d79" stroke="#f08d79" stroke-width="1.51"/><path d="M-203,871L-165,997L15,790Z" fill="#f6937e" stroke="#f6937e" stroke-width="1.51"/><path d="M-61,246L-115,354L-6,354Z" fill="#ffbfa9" stroke="#ffbfa9" stroke-width="1.51"/><path d="M-129,1094L-50,1120L-1,1038Z" fill="#e38875" stroke="#e38875" stroke-width="1.51"/><path d="M-165,997L-129,1094L-1,1038Z" fill="#e78a78" stroke="#e78a78" stroke-width="1.51"/><path d="M-115,354L-194,574L-69,583Z" fill="#ffb199" stroke="#ffb199" stroke-width="1.51"/><path d="M-50,1120L-194,1277L-21,1266Z" fill="#d18273" stroke="#d18273" stroke-width="1.51"/><path d="M-129,1094L-194,1277L-50,1120Z" fill="#da8776" stroke="#da8776" stroke-width="1.51"/><path d="M-214,710L-203,871L-50,695Z" fill="#ff9c86" stroke="#ff9c86" stroke-width="1.51"/><path d="M-190,-208L-151,-52L-18,-107Z" fill="#ffe8de" stroke="#ffe8de" stroke-width="1.51"/><path d="M-190,-208L-18,-107L-15,-186Z" fill="#ffe9df" stroke="#ffe9df" stroke-width="1.51"/><path d="M-194,574L-214,710L-69,583Z" fill="#ffa790" stroke="#ffa790" stroke-width="1.51"/><path d="M-188,133L-208,213L-61,246Z" fill="#ffcebb" stroke="#ffcebb" stroke-width="1.51"/><path d="M-69,583L-214,710L-50,695Z" fill="#ffa28a" stroke="#ffa28a" stroke-width="1.51"/><path d="M-151,-52L-188,133L-48,42Z" fill="#ffdccd" stroke="#ffdccd" stroke-width="1.51"/><path d="M-208,213L-115,354L-61,246Z" fill="#ffc6b2" stroke="#ffc6b2" stroke-width="1.51"/><path d="M-208,213L-194,574L-115,354Z" fill="#ffbda7" stroke="#ffbda7" stroke-width="1.51"/><path d="M-165,997L-194,1277L-129,1094Z" fill="#e08a78" stroke="#e08a78" stroke-width="1.51"/><path d="M-190,-208L-188,133L-151,-52Z" fill="#ffe5d9" stroke="#ffe5d9" stroke-width="1.51"/><path d="M-203,871L-194,1277L-165,997Z" fill="#e78d7c" stroke="#e78d7c" stroke-width="1.51"/><path d="M-208,213L-214,710L-194,574Z" fill="#ffb49d" stroke="#ffb49d" stroke-width="1.51"/><path d="M-190,-208L-208,213L-188,133Z" fill="#ffdecf" stroke="#ffdecf" stroke-width="1.51"/><path d="M-203,871L-214,710L-194,1277Z" fill="#f1917f" stroke="#f1917f" stroke-width="1.51"/></svg>