<?xml version="1.0" encoding="utf-8"?>
<!-- Generator: Adobe Illustrator 19.0.0, SVG Export Plug-In . SVG Version: 6.00 Build 0)  -->
<svg version="1.1" id="Layer_1" xmlns="http://www.w3.org/2000/svg" xmlns:xlink="http://www.w3.org/1999/xlink" x="0px" y="0px"
	 viewBox="0 0 16 16" style="enable-background:new 0 0 16 16;" xml:space="preserve">
<style type="text/css">
	.st0{fill:#FFFFFF;}
</style>
<path id="XMLID_838_" class="st0" d="M9.9,6.6C9,6,8.4,5,8.4,3.9c0-1.7,1.4-3.1,3.1-3.1c0.9,0,1.6,0.5,2,1.1c0,0,0,0-0.1,0
	c-0.7,0-1.2,0.5-1.2,1.2c0,0.7,0.5,1.2,1.2,1.2s1.2-0.5,1.2-1.2c0-1.7-1.4-3.1-3.1-3.1C8.8,0,6.2,1.1,4.3,3c-1.8,1.8-2.9,4.2-3,6.8
	h0c0,0.1,0,0.1,0,0.2c0,0.1,0,0.1,0,0.2h0c0.2,3.1,2.7,5.6,5.8,5.8v0c0.1,0,0.1,0,0.2,0c0.1,0,0.1,0,0.2,0v0
	c2.6-0.2,4.7-2.4,4.7-5.1c0-1.7-0.8-3.3-2.2-4.2"/>
</svg>
